<mxfile modified="2024-08-27T21:54:30.129Z" host="Electron" agent="Mozilla/5.0 (Windows NT 10.0; Win64; x64) AppleWebKit/537.36 (KHTML, like Gecko) draw.io/24.6.4 Chrome/124.0.6367.207 Electron/30.0.6 Safari/537.36" etag="AqlcumGAqYRdAauWOnDv" version="24.6.4" type="device">
  <diagram id="Ht1M8jgEwFfnCIfOTk4-" name="Page-1">
    <mxGraphModel dx="2084" dy="817" grid="1" gridSize="10" guides="1" tooltips="1" connect="1" arrows="1" fold="1" page="1" pageScale="1" pageWidth="827" pageHeight="1169" math="0" shadow="0">
      <root>
        <mxCell id="0" />
        <mxCell id="1" parent="0" />
        <mxCell id="bMA_1R0ruDVuRUQ1SIpu-19" value="" style="rounded=1;whiteSpace=wrap;html=1;fillColor=none;strokeColor=#f58534;" vertex="1" parent="1">
          <mxGeometry x="80" y="120" width="620" height="480" as="geometry" />
        </mxCell>
        <mxCell id="bMA_1R0ruDVuRUQ1SIpu-1" value="" style="outlineConnect=0;dashed=0;verticalLabelPosition=bottom;verticalAlign=top;align=center;html=1;shape=mxgraph.aws3.elastic_beanstalk;fillColor=#F58534;gradientColor=none;" vertex="1" parent="1">
          <mxGeometry x="92.5" y="140" width="67.5" height="90" as="geometry" />
        </mxCell>
        <mxCell id="bMA_1R0ruDVuRUQ1SIpu-7" value="" style="outlineConnect=0;dashed=0;verticalLabelPosition=bottom;verticalAlign=top;align=center;html=1;shape=mxgraph.aws3.ec2;fillColor=#F58534;gradientColor=none;" vertex="1" parent="1">
          <mxGeometry x="359" y="430" width="76.5" height="93" as="geometry" />
        </mxCell>
        <mxCell id="bMA_1R0ruDVuRUQ1SIpu-8" value="&lt;b&gt;WebApp Server&lt;/b&gt;" style="text;html=1;align=center;verticalAlign=middle;resizable=0;points=[];autosize=1;strokeColor=none;fillColor=none;" vertex="1" parent="1">
          <mxGeometry x="345" y="517" width="110" height="30" as="geometry" />
        </mxCell>
        <mxCell id="bMA_1R0ruDVuRUQ1SIpu-9" value="" style="outlineConnect=0;dashed=0;verticalLabelPosition=bottom;verticalAlign=top;align=center;html=1;shape=mxgraph.aws3.ec2;fillColor=#F58534;gradientColor=none;" vertex="1" parent="1">
          <mxGeometry x="514" y="430" width="76.5" height="93" as="geometry" />
        </mxCell>
        <mxCell id="bMA_1R0ruDVuRUQ1SIpu-10" value="&lt;b&gt;WebApp Server&lt;/b&gt;" style="text;html=1;align=center;verticalAlign=middle;resizable=0;points=[];autosize=1;strokeColor=none;fillColor=none;" vertex="1" parent="1">
          <mxGeometry x="500" y="517" width="110" height="30" as="geometry" />
        </mxCell>
        <mxCell id="bMA_1R0ruDVuRUQ1SIpu-3" value="" style="outlineConnect=0;dashed=0;verticalLabelPosition=bottom;verticalAlign=top;align=center;html=1;shape=mxgraph.aws3.ec2;fillColor=#F58534;gradientColor=none;" vertex="1" parent="1">
          <mxGeometry x="204" y="430" width="76.5" height="93" as="geometry" />
        </mxCell>
        <mxCell id="bMA_1R0ruDVuRUQ1SIpu-6" value="&lt;b&gt;WebApp Server&lt;/b&gt;" style="text;html=1;align=center;verticalAlign=middle;resizable=0;points=[];autosize=1;strokeColor=none;fillColor=none;" vertex="1" parent="1">
          <mxGeometry x="190" y="517" width="110" height="30" as="geometry" />
        </mxCell>
        <mxCell id="bMA_1R0ruDVuRUQ1SIpu-14" value="Security group" style="fillColor=none;strokeColor=#DD3522;verticalAlign=top;fontStyle=0;fontColor=#DD3522;whiteSpace=wrap;html=1;" vertex="1" parent="1">
          <mxGeometry x="160" y="400" width="480" height="142" as="geometry" />
        </mxCell>
        <mxCell id="bMA_1R0ruDVuRUQ1SIpu-15" value="" style="rounded=1;whiteSpace=wrap;html=1;fillColor=none;dashed=1;strokeColor=#f58534;" vertex="1" parent="1">
          <mxGeometry x="120" y="320" width="560" height="240" as="geometry" />
        </mxCell>
        <mxCell id="bMA_1R0ruDVuRUQ1SIpu-16" value="" style="sketch=0;outlineConnect=0;fontColor=#232F3E;gradientColor=none;fillColor=#ED7100;strokeColor=none;dashed=0;verticalLabelPosition=bottom;verticalAlign=top;align=center;html=1;fontSize=12;fontStyle=0;aspect=fixed;pointerEvents=1;shape=mxgraph.aws4.auto_scaling2;" vertex="1" parent="1">
          <mxGeometry x="376" y="320" width="48" height="48" as="geometry" />
        </mxCell>
        <mxCell id="bMA_1R0ruDVuRUQ1SIpu-18" style="edgeStyle=orthogonalEdgeStyle;rounded=0;orthogonalLoop=1;jettySize=auto;html=1;fillColor=#e1d5e7;strokeColor=#9673a6;" edge="1" parent="1" source="bMA_1R0ruDVuRUQ1SIpu-17" target="bMA_1R0ruDVuRUQ1SIpu-16">
          <mxGeometry relative="1" as="geometry" />
        </mxCell>
        <mxCell id="bMA_1R0ruDVuRUQ1SIpu-17" value="" style="sketch=0;outlineConnect=0;fontColor=#232F3E;gradientColor=none;fillColor=#8C4FFF;strokeColor=none;dashed=0;verticalLabelPosition=bottom;verticalAlign=top;align=center;html=1;fontSize=12;fontStyle=0;aspect=fixed;pointerEvents=1;shape=mxgraph.aws4.application_load_balancer;" vertex="1" parent="1">
          <mxGeometry x="361" y="160" width="78" height="78" as="geometry" />
        </mxCell>
        <mxCell id="bMA_1R0ruDVuRUQ1SIpu-21" style="edgeStyle=orthogonalEdgeStyle;rounded=0;orthogonalLoop=1;jettySize=auto;html=1;exitX=1;exitY=0.5;exitDx=0;exitDy=0;exitPerimeter=0;entryX=0;entryY=0.5;entryDx=0;entryDy=0;fillColor=#d5e8d4;strokeColor=#82b366;" edge="1" parent="1" source="bMA_1R0ruDVuRUQ1SIpu-20" target="bMA_1R0ruDVuRUQ1SIpu-19">
          <mxGeometry relative="1" as="geometry" />
        </mxCell>
        <mxCell id="bMA_1R0ruDVuRUQ1SIpu-20" value="" style="sketch=0;points=[[0,0,0],[0.25,0,0],[0.5,0,0],[0.75,0,0],[1,0,0],[0,1,0],[0.25,1,0],[0.5,1,0],[0.75,1,0],[1,1,0],[0,0.25,0],[0,0.5,0],[0,0.75,0],[1,0.25,0],[1,0.5,0],[1,0.75,0]];outlineConnect=0;fontColor=#232F3E;fillColor=#7AA116;strokeColor=#ffffff;dashed=0;verticalLabelPosition=bottom;verticalAlign=top;align=center;html=1;fontSize=12;fontStyle=0;aspect=fixed;shape=mxgraph.aws4.resourceIcon;resIcon=mxgraph.aws4.s3;" vertex="1" parent="1">
          <mxGeometry x="-70" y="321" width="78" height="78" as="geometry" />
        </mxCell>
        <mxCell id="bMA_1R0ruDVuRUQ1SIpu-23" value="&lt;font style=&quot;font-size: 14px;&quot;&gt;Elastic Beanstalk&lt;/font&gt;" style="text;html=1;align=left;verticalAlign=middle;whiteSpace=wrap;rounded=0;fontStyle=1" vertex="1" parent="1">
          <mxGeometry x="327.25" y="120" width="140" height="30" as="geometry" />
        </mxCell>
      </root>
    </mxGraphModel>
  </diagram>
</mxfile>
